<mxfile host="1c2032fe-b943-455e-b506-8096f3a69b6b" modified="2020-07-23T09:51:27.747Z" agent="5.0 (Windows NT 10.0; Win64; x64) AppleWebKit/537.36 (KHTML, like Gecko) Code/1.47.2 Chrome/78.0.3904.130 Electron/7.3.2 Safari/537.36" etag="buSw1VUbNDNGYstwY-mT" version="13.1.3" pages="2">
    <diagram id="VAm6x46tDt8hWLN9XQ7f" name="Use case">
        <mxGraphModel dx="1173" dy="792" grid="1" gridSize="10" guides="1" tooltips="1" connect="1" arrows="1" fold="1" page="1" pageScale="1" pageWidth="850" pageHeight="1100" math="0" shadow="0">
            <root>
                <mxCell id="0"/>
                <mxCell id="1" parent="0"/>
                <mxCell id="ISecW_dbYWo_y4zXbdXJ-11" style="edgeStyle=orthogonalEdgeStyle;rounded=0;orthogonalLoop=1;jettySize=auto;html=1;exitX=0.5;exitY=0.5;exitDx=0;exitDy=0;exitPerimeter=0;entryX=0;entryY=0.5;entryDx=0;entryDy=0;fontSize=26;" parent="1" source="ISecW_dbYWo_y4zXbdXJ-1" target="ISecW_dbYWo_y4zXbdXJ-6" edge="1">
                    <mxGeometry relative="1" as="geometry">
                        <Array as="points">
                            <mxPoint x="35" y="480"/>
                            <mxPoint x="110" y="480"/>
                            <mxPoint x="110" y="345"/>
                        </Array>
                    </mxGeometry>
                </mxCell>
                <mxCell id="ISecW_dbYWo_y4zXbdXJ-12" style="edgeStyle=orthogonalEdgeStyle;rounded=0;orthogonalLoop=1;jettySize=auto;html=1;exitX=0.5;exitY=0.5;exitDx=0;exitDy=0;exitPerimeter=0;entryX=0;entryY=0.5;entryDx=0;entryDy=0;fontSize=26;" parent="1" source="ISecW_dbYWo_y4zXbdXJ-1" target="ISecW_dbYWo_y4zXbdXJ-3" edge="1">
                    <mxGeometry relative="1" as="geometry">
                        <Array as="points">
                            <mxPoint x="35" y="480"/>
                            <mxPoint x="110" y="480"/>
                            <mxPoint x="110" y="445"/>
                        </Array>
                    </mxGeometry>
                </mxCell>
                <mxCell id="ISecW_dbYWo_y4zXbdXJ-13" style="edgeStyle=orthogonalEdgeStyle;rounded=0;orthogonalLoop=1;jettySize=auto;html=1;exitX=0.5;exitY=0.5;exitDx=0;exitDy=0;exitPerimeter=0;entryX=0;entryY=0.5;entryDx=0;entryDy=0;fontSize=26;" parent="1" source="ISecW_dbYWo_y4zXbdXJ-1" target="ISecW_dbYWo_y4zXbdXJ-4" edge="1">
                    <mxGeometry relative="1" as="geometry">
                        <Array as="points">
                            <mxPoint x="35" y="480"/>
                            <mxPoint x="110" y="480"/>
                            <mxPoint x="110" y="540"/>
                        </Array>
                    </mxGeometry>
                </mxCell>
                <mxCell id="ISecW_dbYWo_y4zXbdXJ-14" style="edgeStyle=orthogonalEdgeStyle;rounded=0;orthogonalLoop=1;jettySize=auto;html=1;exitX=0.5;exitY=0.5;exitDx=0;exitDy=0;exitPerimeter=0;entryX=0;entryY=0.5;entryDx=0;entryDy=0;fontSize=26;" parent="1" source="ISecW_dbYWo_y4zXbdXJ-1" target="ISecW_dbYWo_y4zXbdXJ-5" edge="1">
                    <mxGeometry relative="1" as="geometry">
                        <Array as="points">
                            <mxPoint x="35" y="480"/>
                            <mxPoint x="110" y="480"/>
                            <mxPoint x="110" y="645"/>
                        </Array>
                    </mxGeometry>
                </mxCell>
                <mxCell id="ISecW_dbYWo_y4zXbdXJ-15" style="edgeStyle=orthogonalEdgeStyle;rounded=0;orthogonalLoop=1;jettySize=auto;html=1;exitX=0.5;exitY=0.5;exitDx=0;exitDy=0;exitPerimeter=0;entryX=0;entryY=0.5;entryDx=0;entryDy=0;fontSize=26;" parent="1" source="ISecW_dbYWo_y4zXbdXJ-1" target="ISecW_dbYWo_y4zXbdXJ-7" edge="1">
                    <mxGeometry relative="1" as="geometry">
                        <Array as="points">
                            <mxPoint x="35" y="480"/>
                            <mxPoint x="110" y="480"/>
                            <mxPoint x="110" y="235"/>
                        </Array>
                    </mxGeometry>
                </mxCell>
                <mxCell id="ISecW_dbYWo_y4zXbdXJ-16" style="edgeStyle=orthogonalEdgeStyle;rounded=0;orthogonalLoop=1;jettySize=auto;html=1;exitX=0.5;exitY=0.5;exitDx=0;exitDy=0;exitPerimeter=0;entryX=0;entryY=0.5;entryDx=0;entryDy=0;fontSize=26;" parent="1" source="ISecW_dbYWo_y4zXbdXJ-1" target="ISecW_dbYWo_y4zXbdXJ-8" edge="1">
                    <mxGeometry relative="1" as="geometry">
                        <Array as="points">
                            <mxPoint x="35" y="480"/>
                            <mxPoint x="110" y="480"/>
                            <mxPoint x="110" y="735"/>
                        </Array>
                    </mxGeometry>
                </mxCell>
                <mxCell id="ISecW_dbYWo_y4zXbdXJ-1" value="Actor" style="shape=umlActor;verticalLabelPosition=bottom;verticalAlign=top;html=1;" parent="1" vertex="1">
                    <mxGeometry x="20" y="440" width="30" height="60" as="geometry"/>
                </mxCell>
                <mxCell id="ISecW_dbYWo_y4zXbdXJ-2" value="Use case" style="text;html=1;strokeColor=none;fillColor=none;align=center;verticalAlign=middle;whiteSpace=wrap;rounded=0;fontStyle=1;fontSize=26;" parent="1" vertex="1">
                    <mxGeometry x="310" y="60" width="200" height="20" as="geometry"/>
                </mxCell>
                <mxCell id="ISecW_dbYWo_y4zXbdXJ-24" value="" style="edgeStyle=orthogonalEdgeStyle;rounded=0;orthogonalLoop=1;jettySize=auto;html=1;dashed=1;fontSize=26;" parent="1" source="ISecW_dbYWo_y4zXbdXJ-3" target="ISecW_dbYWo_y4zXbdXJ-23" edge="1">
                    <mxGeometry relative="1" as="geometry"/>
                </mxCell>
                <mxCell id="ISecW_dbYWo_y4zXbdXJ-27" style="edgeStyle=orthogonalEdgeStyle;rounded=0;orthogonalLoop=1;jettySize=auto;html=1;entryX=0;entryY=0.5;entryDx=0;entryDy=0;dashed=1;fontSize=26;" parent="1" source="ISecW_dbYWo_y4zXbdXJ-3" target="ISecW_dbYWo_y4zXbdXJ-26" edge="1">
                    <mxGeometry relative="1" as="geometry"/>
                </mxCell>
                <mxCell id="ISecW_dbYWo_y4zXbdXJ-29" style="edgeStyle=orthogonalEdgeStyle;rounded=0;orthogonalLoop=1;jettySize=auto;html=1;entryX=0;entryY=0.5;entryDx=0;entryDy=0;dashed=1;fontSize=26;" parent="1" source="ISecW_dbYWo_y4zXbdXJ-3" target="ISecW_dbYWo_y4zXbdXJ-28" edge="1">
                    <mxGeometry relative="1" as="geometry"/>
                </mxCell>
                <mxCell id="ISecW_dbYWo_y4zXbdXJ-31" style="edgeStyle=orthogonalEdgeStyle;rounded=0;orthogonalLoop=1;jettySize=auto;html=1;exitX=1;exitY=0.5;exitDx=0;exitDy=0;entryX=0;entryY=0.5;entryDx=0;entryDy=0;dashed=1;fontSize=26;" edge="1" parent="1" source="ISecW_dbYWo_y4zXbdXJ-3" target="ISecW_dbYWo_y4zXbdXJ-30">
                    <mxGeometry relative="1" as="geometry">
                        <Array as="points">
                            <mxPoint x="340" y="445"/>
                            <mxPoint x="340" y="635"/>
                        </Array>
                    </mxGeometry>
                </mxCell>
                <mxCell id="ISecW_dbYWo_y4zXbdXJ-3" value="&lt;font style=&quot;font-size: 12px&quot;&gt;Add transactions&lt;/font&gt;" style="ellipse;whiteSpace=wrap;html=1;fontSize=26;verticalAlign=top;" parent="1" vertex="1">
                    <mxGeometry x="170" y="420" width="130" height="50" as="geometry"/>
                </mxCell>
                <mxCell id="ISecW_dbYWo_y4zXbdXJ-4" value="&lt;font style=&quot;font-size: 12px&quot;&gt;View report&lt;/font&gt;" style="ellipse;whiteSpace=wrap;html=1;fontSize=26;verticalAlign=top;" parent="1" vertex="1">
                    <mxGeometry x="170" y="515" width="130" height="50" as="geometry"/>
                </mxCell>
                <mxCell id="ISecW_dbYWo_y4zXbdXJ-5" value="&lt;font style=&quot;font-size: 12px&quot;&gt;Add budget&lt;/font&gt;" style="ellipse;whiteSpace=wrap;html=1;fontSize=26;verticalAlign=top;" parent="1" vertex="1">
                    <mxGeometry x="170" y="620" width="130" height="50" as="geometry"/>
                </mxCell>
                <mxCell id="ISecW_dbYWo_y4zXbdXJ-6" value="&lt;font style=&quot;font-size: 12px&quot;&gt;Sign in&lt;/font&gt;" style="ellipse;whiteSpace=wrap;html=1;fontSize=26;verticalAlign=top;" parent="1" vertex="1">
                    <mxGeometry x="170" y="320" width="130" height="50" as="geometry"/>
                </mxCell>
                <mxCell id="ISecW_dbYWo_y4zXbdXJ-7" value="&lt;font style=&quot;font-size: 12px&quot;&gt;Resgister&lt;/font&gt;" style="ellipse;whiteSpace=wrap;html=1;fontSize=26;verticalAlign=top;" parent="1" vertex="1">
                    <mxGeometry x="170" y="210" width="130" height="50" as="geometry"/>
                </mxCell>
                <mxCell id="ISecW_dbYWo_y4zXbdXJ-8" value="&lt;font style=&quot;font-size: 12px&quot;&gt;Add category&lt;/font&gt;" style="ellipse;whiteSpace=wrap;html=1;fontSize=26;verticalAlign=top;" parent="1" vertex="1">
                    <mxGeometry x="170" y="710" width="130" height="50" as="geometry"/>
                </mxCell>
                <mxCell id="ISecW_dbYWo_y4zXbdXJ-18" value="&lt;font style=&quot;font-size: 12px&quot;&gt;Resgister with Google&lt;/font&gt;" style="ellipse;whiteSpace=wrap;html=1;fontSize=26;verticalAlign=top;" parent="1" vertex="1">
                    <mxGeometry x="630" y="230" width="130" height="50" as="geometry"/>
                </mxCell>
                <mxCell id="ISecW_dbYWo_y4zXbdXJ-22" style="edgeStyle=orthogonalEdgeStyle;rounded=0;orthogonalLoop=1;jettySize=auto;html=1;entryX=1;entryY=0.5;entryDx=0;entryDy=0;dashed=1;fontSize=26;" parent="1" source="ISecW_dbYWo_y4zXbdXJ-19" target="ISecW_dbYWo_y4zXbdXJ-6" edge="1">
                    <mxGeometry relative="1" as="geometry"/>
                </mxCell>
                <mxCell id="ISecW_dbYWo_y4zXbdXJ-19" value="&lt;font style=&quot;font-size: 12px&quot;&gt;Sign in with Google&lt;/font&gt;" style="ellipse;whiteSpace=wrap;html=1;fontSize=26;verticalAlign=top;" parent="1" vertex="1">
                    <mxGeometry x="380" y="320" width="130" height="50" as="geometry"/>
                </mxCell>
                <mxCell id="ISecW_dbYWo_y4zXbdXJ-21" style="edgeStyle=orthogonalEdgeStyle;rounded=0;orthogonalLoop=1;jettySize=auto;html=1;entryX=1;entryY=0.5;entryDx=0;entryDy=0;dashed=1;fontSize=26;" parent="1" source="2" target="ISecW_dbYWo_y4zXbdXJ-7" edge="1">
                    <mxGeometry relative="1" as="geometry"/>
                </mxCell>
                <mxCell id="2" value="&lt;font style=&quot;font-size: 12px&quot;&gt;Resgister&lt;/font&gt;" style="ellipse;whiteSpace=wrap;html=1;fontSize=26;verticalAlign=top;" parent="1" vertex="1">
                    <mxGeometry x="380" y="210" width="130" height="50" as="geometry"/>
                </mxCell>
                <mxCell id="ISecW_dbYWo_y4zXbdXJ-23" value="&lt;font style=&quot;font-size: 12px&quot;&gt;View transactions&lt;/font&gt;" style="ellipse;whiteSpace=wrap;html=1;fontSize=26;verticalAlign=top;" parent="1" vertex="1">
                    <mxGeometry x="390" y="390" width="130" height="50" as="geometry"/>
                </mxCell>
                <mxCell id="ISecW_dbYWo_y4zXbdXJ-26" value="&lt;font style=&quot;font-size: 12px&quot;&gt;Update a transaction&lt;/font&gt;" style="ellipse;whiteSpace=wrap;html=1;fontSize=26;verticalAlign=top;" parent="1" vertex="1">
                    <mxGeometry x="390" y="460" width="130" height="50" as="geometry"/>
                </mxCell>
                <mxCell id="ISecW_dbYWo_y4zXbdXJ-28" value="&lt;font style=&quot;font-size: 12px&quot;&gt;Search transactions&lt;/font&gt;" style="ellipse;whiteSpace=wrap;html=1;fontSize=26;verticalAlign=top;" parent="1" vertex="1">
                    <mxGeometry x="390" y="540" width="130" height="50" as="geometry"/>
                </mxCell>
                <mxCell id="ISecW_dbYWo_y4zXbdXJ-30" value="&lt;font style=&quot;font-size: 12px&quot;&gt;Delete transactions&lt;/font&gt;" style="ellipse;whiteSpace=wrap;html=1;fontSize=26;verticalAlign=top;" vertex="1" parent="1">
                    <mxGeometry x="380" y="610" width="130" height="50" as="geometry"/>
                </mxCell>
            </root>
        </mxGraphModel>
    </diagram>
    <diagram id="X9gMY8Nq_1_TynFEJNWI" name="Database">
        <mxGraphModel grid="1" gridSize="10" guides="1" tooltips="1" connect="1" arrows="1" page="1" fold="1" pageScale="1" pageWidth="850" pageHeight="1100" math="0" shadow="0">
            <root>
                <mxCell id="ieBPwDi9-aRZE7v6kEGW-0"/>
                <mxCell id="ieBPwDi9-aRZE7v6kEGW-1" parent="ieBPwDi9-aRZE7v6kEGW-0"/>
                <mxCell id="ieBPwDi9-aRZE7v6kEGW-23" value="Transaction" style="swimlane;childLayout=stackLayout;horizontal=1;startSize=30;horizontalStack=0;rounded=1;fontSize=14;fontStyle=0;strokeWidth=2;resizeParent=0;resizeLast=1;shadow=0;dashed=0;align=center;fillColor=none;" vertex="1" parent="ieBPwDi9-aRZE7v6kEGW-1">
                    <mxGeometry x="360" y="90" width="160" height="120" as="geometry"/>
                </mxCell>
                <mxCell id="ieBPwDi9-aRZE7v6kEGW-24" value="+_id&#10;+amount&#10;+category&#10;+createdAt&#10;+note" style="align=left;strokeColor=none;fillColor=none;spacingLeft=4;fontSize=12;verticalAlign=top;resizable=0;rotatable=0;part=1;" vertex="1" parent="ieBPwDi9-aRZE7v6kEGW-23">
                    <mxGeometry y="30" width="160" height="90" as="geometry"/>
                </mxCell>
                <mxCell id="ieBPwDi9-aRZE7v6kEGW-30" value="" style="edgeStyle=entityRelationEdgeStyle;fontSize=12;html=1;endArrow=ERoneToMany;dashed=1;entryX=0;entryY=0.5;entryDx=0;entryDy=0;exitX=0.994;exitY=0.367;exitDx=0;exitDy=0;exitPerimeter=0;" edge="1" parent="ieBPwDi9-aRZE7v6kEGW-1" source="ieBPwDi9-aRZE7v6kEGW-18" target="ieBPwDi9-aRZE7v6kEGW-23">
                    <mxGeometry width="100" height="100" relative="1" as="geometry">
                        <mxPoint x="230" y="260" as="sourcePoint"/>
                        <mxPoint x="330" y="160" as="targetPoint"/>
                    </mxGeometry>
                </mxCell>
                <mxCell id="ieBPwDi9-aRZE7v6kEGW-17" value="User" style="swimlane;childLayout=stackLayout;horizontal=1;startSize=30;horizontalStack=0;rounded=1;fontSize=14;fontStyle=0;strokeWidth=2;resizeParent=0;resizeLast=1;shadow=0;dashed=0;align=center;" vertex="1" parent="ieBPwDi9-aRZE7v6kEGW-1">
                    <mxGeometry x="50" y="190" width="160" height="120" as="geometry"/>
                </mxCell>
                <mxCell id="ieBPwDi9-aRZE7v6kEGW-18" value="+_id&#10;+email&#10;+password&#10;+transaction&#10;+budget&#10;+setting&#10;" style="align=left;strokeColor=none;fillColor=none;spacingLeft=4;fontSize=12;verticalAlign=top;resizable=0;rotatable=0;part=1;" vertex="1" parent="ieBPwDi9-aRZE7v6kEGW-17">
                    <mxGeometry y="30" width="160" height="90" as="geometry"/>
                </mxCell>
                <mxCell id="ieBPwDi9-aRZE7v6kEGW-26" value="Category" style="swimlane;childLayout=stackLayout;horizontal=1;startSize=30;horizontalStack=0;rounded=1;fontSize=14;fontStyle=0;strokeWidth=2;resizeParent=0;resizeLast=1;shadow=0;dashed=0;align=center;fillColor=none;" vertex="1" parent="ieBPwDi9-aRZE7v6kEGW-1">
                    <mxGeometry x="630" y="90" width="160" height="120" as="geometry"/>
                </mxCell>
                <mxCell id="ieBPwDi9-aRZE7v6kEGW-27" value="+_id&#10;+icon&#10;+name&#10;+type" style="align=left;strokeColor=none;fillColor=none;spacingLeft=4;fontSize=12;verticalAlign=top;resizable=0;rotatable=0;part=1;" vertex="1" parent="ieBPwDi9-aRZE7v6kEGW-26">
                    <mxGeometry y="30" width="160" height="90" as="geometry"/>
                </mxCell>
                <mxCell id="ieBPwDi9-aRZE7v6kEGW-31" value="" style="edgeStyle=entityRelationEdgeStyle;fontSize=12;html=1;endArrow=ERone;endFill=1;dashed=1;entryX=0;entryY=0.5;entryDx=0;entryDy=0;exitX=1;exitY=0.5;exitDx=0;exitDy=0;" edge="1" parent="ieBPwDi9-aRZE7v6kEGW-1" source="ieBPwDi9-aRZE7v6kEGW-24" target="ieBPwDi9-aRZE7v6kEGW-26">
                    <mxGeometry width="100" height="100" relative="1" as="geometry">
                        <mxPoint x="505" y="270" as="sourcePoint"/>
                        <mxPoint x="605" y="170" as="targetPoint"/>
                    </mxGeometry>
                </mxCell>
                <mxCell id="ieBPwDi9-aRZE7v6kEGW-28" value="Budget" style="swimlane;childLayout=stackLayout;horizontal=1;startSize=30;horizontalStack=0;rounded=1;fontSize=14;fontStyle=0;strokeWidth=2;resizeParent=0;resizeLast=1;shadow=0;dashed=0;align=center;fillColor=none;" vertex="1" parent="ieBPwDi9-aRZE7v6kEGW-1">
                    <mxGeometry x="345" y="380" width="160" height="140" as="geometry"/>
                </mxCell>
                <mxCell id="ieBPwDi9-aRZE7v6kEGW-29" value="+_id&#10;+amount&#10;+category&#10;+start_date&#10;+end_date&#10;+ expense_transaction" style="align=left;strokeColor=none;fillColor=none;spacingLeft=4;fontSize=12;verticalAlign=top;resizable=0;rotatable=0;part=1;" vertex="1" parent="ieBPwDi9-aRZE7v6kEGW-28">
                    <mxGeometry y="30" width="160" height="110" as="geometry"/>
                </mxCell>
                <mxCell id="ieBPwDi9-aRZE7v6kEGW-32" value="" style="edgeStyle=entityRelationEdgeStyle;fontSize=12;html=1;endArrow=ERoneToMany;dashed=1;entryX=-0.019;entryY=0.373;entryDx=0;entryDy=0;exitX=1;exitY=0.75;exitDx=0;exitDy=0;entryPerimeter=0;" edge="1" parent="ieBPwDi9-aRZE7v6kEGW-1" source="ieBPwDi9-aRZE7v6kEGW-18" target="ieBPwDi9-aRZE7v6kEGW-29">
                    <mxGeometry width="100" height="100" relative="1" as="geometry">
                        <mxPoint x="149.99999999999994" y="520" as="sourcePoint"/>
                        <mxPoint x="300.96" y="416.97" as="targetPoint"/>
                    </mxGeometry>
                </mxCell>
            </root>
        </mxGraphModel>
    </diagram>
</mxfile>